<?xml version="1.0" encoding="UTF-8" standalone="no"?><!-- Generator: Gravit.io --><svg xmlns="http://www.w3.org/2000/svg" xmlns:xlink="http://www.w3.org/1999/xlink" style="isolation:isolate" viewBox="0 0 505.404 424.43" width="505.404pt" height="424.43pt"><defs><clipPath id="_clipPath_y471fRBqn4DJUIeM3znh94ZEo1GaLdqg"><rect width="505.404" height="424.43"/></clipPath></defs><g clip-path="url(#_clipPath_y471fRBqn4DJUIeM3znh94ZEo1GaLdqg)"><rect width="505.404" height="424.43" style="fill:rgb(145,121,121)" fill-opacity="0"/><line x1="40" y1="1.404" x2="38" y2="366.404" vector-effect="non-scaling-stroke" stroke-width="2" stroke="rgb(255,255,255)" stroke-linejoin="miter" stroke-linecap="square" stroke-miterlimit="3"/><line x1="38" y1="366.404" x2="504" y2="368.404" vector-effect="non-scaling-stroke" stroke-width="2" stroke="rgb(255,255,255)" stroke-linejoin="miter" stroke-linecap="square" stroke-miterlimit="3"/><line x1="40" y1="1.404" x2="504" y2="368.404" vector-effect="non-scaling-stroke" stroke-width="2" stroke="rgb(255,255,255)" stroke-linejoin="miter" stroke-linecap="square" stroke-miterlimit="3"/><g clip-path="url(#_clipPath_ACvRhBM27sAjZqTzBaXhPA35YWZZQKB2)"><text transform="matrix(1,0,0,1,301,185.252)" style="font-family:'Open Sans';font-weight:400;font-size:36px;font-style:normal;fill:#ffffff;stroke:none;">A</text></g><defs><clipPath id="_clipPath_ACvRhBM27sAjZqTzBaXhPA35YWZZQKB2"><rect x="0" y="0" width="25" height="49.025" transform="matrix(1,0,0,1,301,146.773)"/></clipPath></defs><g clip-path="url(#_clipPath_ECrr7A0YFVkHO9kNezQAnufHWoqSZPTC)"><text transform="matrix(1,0,0,1,212,413.883)" style="font-family:'Open Sans';font-weight:400;font-size:36px;font-style:normal;fill:#ffffff;stroke:none;">C</text></g><defs><clipPath id="_clipPath_ECrr7A0YFVkHO9kNezQAnufHWoqSZPTC"><rect x="0" y="0" width="25" height="49.025" transform="matrix(1,0,0,1,212,375.404)"/></clipPath></defs><g clip-path="url(#_clipPath_A7xXHOztqjgODpQyoLBNJ2aeBssar2ZM)"><text transform="matrix(1,0,0,1,0,209.765)" style="font-family:'Open Sans';font-weight:400;font-size:36px;font-style:normal;fill:#ffffff;stroke:none;">B</text></g><defs><clipPath id="_clipPath_A7xXHOztqjgODpQyoLBNJ2aeBssar2ZM"><rect x="0" y="0" width="26" height="49.025" transform="matrix(1,0,0,1,0,171.286)"/></clipPath></defs></g></svg>